v -1.812105 -0.799477 0.028282
v -1.332296 -0.359338 0.787270
v -1.479651 -0.090122 -0.593241
v -0.999843 0.350016 0.165747
v -0.667704 -0.640662 -0.787270
v -0.187895 -0.200523 -0.028282
v -1.000157 -1.350016 -0.165747
v -0.520349 -0.909878 0.593241
vt 0.375000 0.000000
vt 0.625000 0.000000
vt 0.375000 0.250000
vt 0.625000 0.250000
vt 0.375000 0.500000
vt 0.625000 0.500000
vt 0.375000 0.750000
vt 0.625000 0.750000
vt 0.375000 1.000000
vt 0.625000 1.000000
vt 0.875000 0.000000
vt 0.875000 0.250000
vt 0.125000 0.000000
vt 0.125000 0.250000
vn -0.811948 0.550540 0.194029
vn -0.811948 0.550540 0.194029
vn -0.811948 0.550540 0.194029
vn -0.811948 0.550540 0.194029
vn 0.332453 0.709355 -0.621523
vn 0.332453 0.709355 -0.621523
vn 0.332453 0.709355 -0.621523
vn 0.332453 0.709355 -0.621523
vn 0.811948 -0.550540 -0.194029
vn 0.811948 -0.550540 -0.194029
vn 0.811948 -0.550540 -0.194029
vn 0.811948 -0.550540 -0.194029
vn -0.332453 -0.709355 0.621523
vn -0.332453 -0.709355 0.621523
vn -0.332453 -0.709355 0.621523
vn -0.332453 -0.709355 0.621523
vn 0.479808 0.440139 0.758988
vn 0.479808 0.440139 0.758988
vn 0.479808 0.440139 0.758988
vn 0.479808 0.440139 0.758988
vn -0.479808 -0.440139 -0.758988
vn -0.479808 -0.440139 -0.758988
vn -0.479808 -0.440139 -0.758988
vn -0.479808 -0.440139 -0.758988
f 1/1/1 2/2/2 3/3/3
f 3/3/3 2/2/2 4/4/4
f 3/3/5 4/4/6 5/5/7
f 5/5/7 4/4/6 6/6/8
f 5/5/9 6/6/10 7/7/11
f 7/7/11 6/6/10 8/8/12
f 7/7/13 8/8/14 1/9/15
f 1/9/15 8/8/14 2/10/16
f 2/2/17 8/11/18 4/4/19
f 4/4/19 8/11/18 6/12/20
f 7/13/21 1/1/22 5/14/23
f 5/14/23 1/1/22 3/3/24
